<svg t="1647221844044" class="icon" viewBox="0 0 1024 1024" version="1.1" xmlns="http://www.w3.org/2000/svg" p-id="8868" width="128" height="128"><path d="M763.1 487.8c2.8 13.2-9 24.9-22.2 22.1-40.6-8.8-120.6-23.1-210.1-23.1s-169.5 14.3-210.1 23.1c-13.2 2.9-24.9-8.8-22.2-22.1l41.5-199c1.4-6.6 6.2-12 12.7-14 25-7.9 92.4-26.2 178.1-26.2s153.1 18.4 178.1 26.2c6.5 2 11.3 7.4 12.7 14l41.5 199z" fill="#d68220" opacity=".47" p-id="8869"></path><path d="M353.9 392.7c-0.9 0-1.8-0.1-2.7-0.3-7.2-1.5-11.8-8.5-10.3-15.7l13.4-64.4c2.1-10.4 9.8-18.8 19.9-22 5.5-1.7 13.4-4.1 23.3-6.6 7.1-1.8 14.3 2.5 16.2 9.6 1.8 7.1-2.5 14.3-9.6 16.1-9.2 2.3-16.6 4.5-21.8 6.2-1 0.3-1.7 1.1-1.9 2L367 382c-1.4 6.4-7 10.7-13.1 10.7z" fill="#d68220" p-id="8870"></path><path d="M763.1 487.8c2.8 13.2-9 24.9-22.2 22.1-40.6-8.8-120.6-23.1-210.1-23.1s-169.5 14.3-210.1 23.1c-13.2 2.9-24.9-8.8-22.2-22.1l6.1-29.3s329.9 0.7 449.5-52.5l9 81.8z" fill="#d68220" opacity=".57" p-id="8871"></path><path d="M503.2 420.2c-7.3 0-13.3-6-13.3-13.3v-133c0-7.3 5.9-13.3 13.3-13.3s13.3 6 13.3 13.3v133c0 7.3-5.9 13.3-13.3 13.3z" p-id="8872" fill="#d68220"></path><path d="M569.7 353.7h-133c-7.3 0-13.3-6-13.3-13.3s5.9-13.3 13.3-13.3h133c7.3 0 13.3 6 13.3 13.3s-5.9 13.3-13.3 13.3z" p-id="8873" fill="#d68220"></path><path d="M250.7 522.5c-9.1 0-18-3.6-24.7-10.2-8.5-8.4-12.1-20.5-9.7-32.2L265 246.9c2.6-12.4 11.7-22.6 23.9-26.4 13.3-4.2 35.2-10.4 63.8-16.3 9.6-2 20-3.9 31-5.6 7.2-1.2 14.1 3.8 15.2 11 1.2 7.3-3.8 14.1-11 15.2-10.7 1.7-20.7 3.6-29.9 5.4-27.5 5.6-48.4 11.6-61.1 15.6-3 1-5.2 3.4-5.9 6.5l-48.6 233.2c-0.9 4.2 1.4 6.9 2.4 7.9s3.7 3.1 7.8 2.3c47.3-10.2 142.6-27.4 249-27.4s201.7 17.2 249 27.4c4.1 0.9 6.8-1.3 7.8-2.3 1-1 3.2-3.7 2.4-7.9l-48.6-233.2c-0.6-3.1-2.8-5.5-5.9-6.5-21.3-6.7-79.2-23-154.7-28.4-7.3-0.5-12.8-6.9-12.3-14.2 0.5-7.3 6.7-12.8 14.2-12.3 75.5 5.4 133.2 20.8 160.8 29.5 12.1 3.8 21.3 13.9 23.9 26.4L786.8 480c2.4 11.8-1.2 23.8-9.7 32.2-8.5 8.4-20.6 11.9-32.1 9.4-46.3-10-139.4-26.8-243.4-26.8s-197.1 16.8-243.4 26.8c-2.5 0.7-5.1 0.9-7.5 0.9z" p-id="8874" fill="#d68220"></path><path d="M447.3 217.8c-6.9 0-12.7-5.3-13.2-12.3-0.5-7.3 4.9-13.7 12.3-14.3 15.5-1.2 31-1.9 46.3-2 7.2 0.1 13.4 5.8 13.5 13.1 0.1 7.3-5.8 13.4-13.1 13.5-14.7 0.2-29.7 0.9-44.6 2h-1.2zM501.6 767.4C362.3 767.4 249 654.1 249 514.8c0-7.3 5.9-13.3 13.3-13.3s13.3 6 13.3 13.3c0 124.6 101.4 226 226 226s226-101.4 226-226c0-7.3 5.9-13.3 13.3-13.3 7.3 0 13.3 6 13.3 13.3 0 139.3-113.3 252.6-252.6 252.6z" p-id="8875" fill="#d68220"></path><path d="M621.7 777.4c80.5 0 145.8 65.3 145.8 145.8 0 8.7-7 15.7-15.7 15.7H331.1c-8.7 0-15.7-7-15.7-15.7v-4.7c0-77.9 63.2-141.1 141.1-141.1" fill="#d68220" opacity=".47" p-id="8876"></path><path d="M621.7 897c80.5 0 145.8 0.9 145.8 26.1 0 8.7-7 15.7-15.7 15.7H331.1c-8.7 0-15.7-7-15.7-15.7v-4.7c0-20.5 63.2-21.5 141.1-21.5h165.2z" fill="#d68220" p-id="8877"></path><path d="M761.4 944.5H241.7c-18 0-32.6-14.6-32.6-32.6v-5.8c0-103.5 84.2-187.6 187.6-187.6 7.3 0 13.3 6 13.3 13.3s-5.9 13.3-13.3 13.3c-88.8 0-161 72.2-161 161v5.8c0 3.3 2.7 6.1 6.1 6.1h519.7c3.3 0 6.1-2.7 6.1-6.1 0-92-74.8-166.8-166.8-166.8-7.3 0-13.3-6-13.3-13.3s5.9-13.3 13.3-13.3c106.6 0 193.4 86.7 193.4 193.4-0.1 18-14.8 32.6-32.8 32.6z" p-id="8878" fill="#d68220"></path><path d="M408.5 578.9m-26.6 0a26.6 26.6 0 1 0 53.2 0 26.6 26.6 0 1 0-53.2 0Z" p-id="8879" fill="#d68220"></path><path d="M594.6 578.9m-26.6 0a26.6 26.6 0 1 0 53.2 0 26.6 26.6 0 1 0-53.2 0Z" p-id="8880" fill="#d68220"></path><path d="M494.9 924.5c-5.5 0-10.6-3-13.4-7.7l-95.9-166.2c-2.8-4.8-2.8-10.7 0-15.5 2.8-4.8 7.9-7.7 13.4-7.7 0 0 11.6 13.4 9.6 9.9l86.3 149.5 86.3-149.5c-2 3.4 9.6-9.9 9.6-9.9 5.5 0 10.7 3 13.4 7.7 2.8 4.8 2.8 10.7 0 15.5l-95.9 166.1c-2.7 4.8-7.9 7.8-13.4 7.8z" p-id="8881" fill="#d68220"></path><path d="M249.5 127s-0.1 0 0 0h-39.9V87.1c0-7.3-6-13.3-13.3-13.3-7.3 0-13.3 6-13.3 13.3V127h-39.9c-7.3 0-13.3 6-13.3 13.3 0 7.3 6 13.3 13.3 13.3H183v39.9c0 7.3 6 13.3 13.3 13.3 7.3 0 13.3-6 13.3-13.3v-39.9h39.9c7.3 0 13.3-6 13.3-13.3s-6-13.3-13.3-13.3z" fill="#d68220" p-id="8882"></path><path d="M155.9 275.4c-6-6-15.9-6-21.9 0l-4.7 4.7-4.7-4.7c-6-6-15.9-6-21.9 0-6 6-6 15.9 0 21.9l15.7 15.7c6 6 15.9 6 21.9 0l15.7-15.7c5.9-6 5.9-15.9-0.1-21.9z" fill="#d68220" opacity=".47" p-id="8883"></path><path d="M388.5 113.5c-18.3 0-33.2-14.9-33.2-33.2S370.2 47 388.5 47c18.3 0 33.2 14.9 33.2 33.2s-14.8 33.3-33.2 33.3z m0-53.2c-11 0-19.9 8.9-19.9 19.9s8.9 19.9 19.9 19.9c11 0 19.9-8.9 19.9-19.9s-8.9-19.9-19.9-19.9z" fill="#d68220" opacity=".47" p-id="8884"></path><path d="M885 779.2c-0.4-12-10.5-21.4-22.5-21l-9.3 0.3-0.3-9.3c-0.4-12-10.5-21.4-22.5-21-12 0.4-21.4 10.5-21 22.5l1.1 31c0.4 12 10.5 21.4 22.5 21l31-1.1c12-0.3 21.5-10.4 21-22.4z" fill="#d68220" p-id="8885"></path></svg>